<?xml version="1.0" standalone="no"?>
<!DOCTYPE svg PUBLIC "-//W3C//DTD SVG 20010904//EN"
 "http://www.w3.org/TR/2001/REC-SVG-20010904/DTD/svg10.dtd">
<svg version="1.0" xmlns="http://www.w3.org/2000/svg"
 width="1280.000000pt" height="1280.000000pt" viewBox="0 0 1280.000000 1280.000000"
 preserveAspectRatio="xMidYMid meet">
<metadata>
Created by potrace 1.14, written by Peter Selinger 2001-2017
</metadata>
<g transform="translate(0.000000,1280.000000) scale(0.100000,-0.100000)"
fill="#000000" stroke="none">
<path d="M7715 12549 c-27 -4 -72 -10 -100 -14 -27 -4 -59 -10 -70 -15 -11 -4
-47 -13 -80 -20 -33 -7 -69 -16 -80 -20 -11 -4 -45 -13 -75 -19 -30 -7 -64
-16 -75 -21 -34 -14 -377 -104 -460 -120 -33 -6 -76 -16 -96 -21 -20 -5 -54
-9 -76 -9 -21 0 -44 -5 -51 -12 -16 -16 -437 -17 -517 -1 -33 7 -89 17 -125
23 -36 6 -83 15 -105 20 -53 12 -348 82 -505 120 -69 16 -135 30 -146 30 -11
0 -24 4 -30 9 -5 5 -29 11 -54 14 -25 3 -101 13 -170 21 -148 18 -288 20 -362
5 -172 -34 -199 -42 -310 -92 -104 -48 -234 -137 -323 -222 -11 -11 -41 -38
-65 -61 -75 -68 -276 -303 -435 -510 -33 -42 -67 -85 -75 -93 -9 -9 -49 -56
-90 -106 -200 -239 -404 -406 -620 -506 -93 -43 -176 -81 -192 -90 -10 -5 -25
-9 -33 -9 -8 0 -15 -4 -15 -10 0 -5 -9 -10 -19 -10 -11 0 -23 -4 -26 -10 -3
-5 -15 -10 -26 -10 -10 0 -19 -4 -19 -10 0 -5 -9 -10 -20 -10 -11 0 -28 -4
-38 -9 -9 -5 -36 -18 -58 -30 -23 -11 -50 -21 -61 -21 -10 0 -23 -4 -28 -8 -6
-5 -50 -26 -100 -46 -200 -84 -448 -210 -501 -254 -6 -5 -29 -21 -51 -35 -60
-38 -224 -202 -276 -277 -91 -131 -165 -322 -196 -505 -28 -165 -46 -364 -57
-610 -11 -259 -15 -320 -29 -445 -17 -140 -30 -226 -44 -285 -34 -142 -48
-180 -148 -392 -13 -29 -53 -100 -89 -159 -35 -58 -64 -108 -64 -111 0 -4 -10
-20 -23 -37 -13 -17 -41 -60 -62 -96 -21 -36 -58 -95 -82 -132 -24 -37 -43
-70 -43 -74 0 -4 -6 -15 -14 -23 -38 -43 -195 -346 -221 -427 -9 -27 -20 -58
-25 -69 -49 -108 -63 -216 -57 -433 5 -198 14 -250 73 -402 51 -129 181 -367
286 -522 21 -32 42 -66 45 -75 4 -10 15 -27 26 -38 10 -11 27 -36 38 -55 10
-19 42 -66 69 -105 28 -38 50 -75 50 -82 0 -6 4 -13 8 -15 4 -1 26 -32 47 -68
22 -36 46 -75 52 -85 32 -52 132 -267 151 -325 35 -109 53 -177 62 -232 5 -29
14 -78 20 -108 10 -54 19 -151 41 -415 5 -71 14 -184 20 -250 9 -121 20 -211
38 -340 9 -63 15 -92 35 -167 40 -154 123 -345 185 -428 54 -73 197 -220 213
-220 5 0 20 -11 34 -24 49 -45 294 -181 414 -230 25 -10 74 -31 109 -47 35
-16 70 -29 78 -29 8 0 33 -9 55 -20 23 -11 48 -20 55 -20 7 0 13 -4 13 -10 0
-5 11 -10 24 -10 14 0 28 -4 31 -10 3 -5 15 -10 25 -10 11 0 34 -7 52 -14 18
-8 87 -36 153 -62 143 -56 342 -149 405 -190 25 -16 52 -33 61 -39 87 -54 165
-120 284 -239 157 -158 171 -174 310 -341 54 -66 102 -122 105 -125 3 -3 27
-32 55 -65 141 -171 243 -268 466 -447 54 -44 225 -127 329 -159 71 -23 90
-24 325 -24 269 0 265 0 550 72 55 14 116 29 135 33 19 4 64 17 100 28 162 51
495 129 570 133 19 2 41 7 48 12 7 6 107 10 230 11 214 1 292 -6 452 -41 36
-8 88 -18 115 -23 28 -4 70 -15 95 -23 25 -7 68 -19 95 -25 107 -23 373 -86
420 -99 11 -3 45 -9 75 -14 263 -45 494 -47 645 -7 173 46 318 122 460 241
147 122 291 283 603 675 281 353 482 529 742 653 25 11 81 38 125 60 43 21 87
39 97 39 10 0 18 5 18 10 0 6 6 10 13 10 8 0 27 6 43 14 16 8 67 30 114 49 47
19 136 56 198 81 379 156 565 266 733 435 170 172 256 344 313 626 28 138 52
398 61 645 19 508 69 795 178 1015 16 33 35 71 41 85 18 41 98 184 111 200 7
8 21 31 32 50 10 19 47 81 83 138 36 56 70 110 75 120 6 9 22 35 35 57 14 23
30 50 37 60 161 262 252 465 294 654 24 107 26 380 4 483 -33 158 -123 367
-241 562 -30 49 -54 90 -54 92 0 2 -60 92 -133 201 -72 109 -158 241 -190 293
-32 52 -62 102 -67 110 -38 59 -133 272 -159 355 -62 198 -77 299 -112 735
-40 505 -52 599 -108 800 -34 126 -103 274 -177 380 -34 50 -195 210 -210 210
-7 0 -14 4 -16 8 -14 36 -276 181 -473 262 -196 81 -197 81 -220 90 -11 4 -31
12 -45 18 -14 6 -36 14 -50 18 -61 16 -366 141 -480 196 -204 98 -333 190
-500 358 -154 154 -214 220 -336 371 -42 52 -79 96 -83 99 -4 3 -29 32 -56 65
-222 267 -460 467 -660 555 -159 69 -217 79 -450 78 -110 0 -222 -4 -250 -9z"/>
<path d="M827 11419 c-9 -6 -17 -19 -17 -29 0 -25 33 -43 48 -28 28 28 2 75
-31 57z"/>
<path d="M2278 10949 c-32 -18 -17 -79 22 -91 41 -14 77 41 52 79 -15 24 -46
29 -74 12z"/>
</g>
</svg>
